<svg xmlns="http://www.w3.org/2000/svg" viewBox="0 0 960 520" width="960" height="520">
<defs>
  <!-- Motion paths -->
  <path id="p1"  d="M185,252 C225,252 255,252 290,252"/>
  <path id="p2"  d="M607,190 C645,190 695,168 740,158"/>
  <path id="p3"  d="M607,322 C645,322 695,348 740,360"/>
  <path id="p1r" d="M290,263 C255,263 225,263 185,263"/>
  <path id="p2r" d="M740,168 C700,178 650,198 607,200"/>
  <path id="p3r" d="M740,370 C700,360 650,332 607,332"/>

  <!-- Soft shadow filters -->
  <filter id="shadow-blue" x="-20%" y="-20%" width="140%" height="140%">
    <feDropShadow dx="0" dy="2" stdDeviation="4" flood-color="#3b82f6" flood-opacity="0.2"/>
  </filter>
  <filter id="shadow-purple" x="-20%" y="-20%" width="140%" height="140%">
    <feDropShadow dx="0" dy="3" stdDeviation="6" flood-color="#7c3aed" flood-opacity="0.2"/>
  </filter>
  <filter id="shadow-violet" x="-20%" y="-20%" width="140%" height="140%">
    <feDropShadow dx="0" dy="2" stdDeviation="4" flood-color="#6d28d9" flood-opacity="0.2"/>
  </filter>
  <filter id="shadow-green" x="-20%" y="-20%" width="140%" height="140%">
    <feDropShadow dx="0" dy="2" stdDeviation="4" flood-color="#059669" flood-opacity="0.2"/>
  </filter>
  <filter id="dot-glow-blue" x="-80%" y="-80%" width="260%" height="260%">
    <feGaussianBlur stdDeviation="2.5" result="b"/>
    <feMerge><feMergeNode in="b"/><feMergeNode in="SourceGraphic"/></feMerge>
  </filter>
  <filter id="dot-glow-purple" x="-80%" y="-80%" width="260%" height="260%">
    <feGaussianBlur stdDeviation="2.5" result="b"/>
    <feMerge><feMergeNode in="b"/><feMergeNode in="SourceGraphic"/></feMerge>
  </filter>
  <filter id="dot-glow-green" x="-80%" y="-80%" width="260%" height="260%">
    <feGaussianBlur stdDeviation="2.5" result="b"/>
    <feMerge><feMergeNode in="b"/><feMergeNode in="SourceGraphic"/></feMerge>
  </filter>

  <!-- Gradients -->
  <linearGradient id="bg-grad" x1="0%" y1="0%" x2="100%" y2="100%">
    <stop offset="0%" style="stop-color:#f0f4ff"/>
    <stop offset="100%" style="stop-color:#f8fafc"/>
  </linearGradient>
  <linearGradient id="claude-fill" x1="0%" y1="0%" x2="100%" y2="100%">
    <stop offset="0%" style="stop-color:#eff6ff"/>
    <stop offset="100%" style="stop-color:#dbeafe"/>
  </linearGradient>
  <linearGradient id="mcp-fill" x1="0%" y1="0%" x2="100%" y2="100%">
    <stop offset="0%" style="stop-color:#faf5ff"/>
    <stop offset="100%" style="stop-color:#f3e8ff"/>
  </linearGradient>
  <linearGradient id="stripe-fill" x1="0%" y1="0%" x2="100%" y2="100%">
    <stop offset="0%" style="stop-color:#f5f3ff"/>
    <stop offset="100%" style="stop-color:#ede9fe"/>
  </linearGradient>
  <linearGradient id="db-fill" x1="0%" y1="0%" x2="100%" y2="100%">
    <stop offset="0%" style="stop-color:#f0fdf4"/>
    <stop offset="100%" style="stop-color:#dcfce7"/>
  </linearGradient>

  <!-- Shine sweep gradient -->
  <linearGradient id="shine" x1="0%" y1="0%" x2="100%" y2="0%">
    <stop offset="0%" style="stop-color:#ffffff;stop-opacity:0"/>
    <stop offset="50%" style="stop-color:#ffffff;stop-opacity:0.5"/>
    <stop offset="100%" style="stop-color:#ffffff;stop-opacity:0"/>
  </linearGradient>

  <!-- Arrow markers -->
  <marker id="a-blue" markerWidth="8" markerHeight="6" refX="7" refY="3" orient="auto">
    <polygon points="0 0,8 3,0 6" fill="#3b82f6"/>
  </marker>
  <marker id="a-violet" markerWidth="8" markerHeight="6" refX="7" refY="3" orient="auto">
    <polygon points="0 0,8 3,0 6" fill="#8b5cf6"/>
  </marker>
  <marker id="a-green" markerWidth="8" markerHeight="6" refX="7" refY="3" orient="auto">
    <polygon points="0 0,8 3,0 6" fill="#10b981"/>
  </marker>
</defs>

<!-- ═══ BACKGROUND ════════════════════════════════════════════════════════ -->
<rect width="960" height="520" fill="url(#bg-grad)" rx="16"/>

<!-- Subtle grid -->
<g stroke="#e2e8f0" stroke-width="1" opacity="0.8">
  <line x1="0" y1="65" x2="960" y2="65"/>  <line x1="0" y1="130" x2="960" y2="130"/>
  <line x1="0" y1="195" x2="960" y2="195"/> <line x1="0" y1="260" x2="960" y2="260"/>
  <line x1="0" y1="325" x2="960" y2="325"/> <line x1="0" y1="390" x2="960" y2="390"/>
  <line x1="0" y1="455" x2="960" y2="455"/>
  <line x1="96" y1="0" x2="96" y2="520"/>  <line x1="192" y1="0" x2="192" y2="520"/>
  <line x1="288" y1="0" x2="288" y2="520"/> <line x1="480" y1="0" x2="480" y2="520"/>
  <line x1="672" y1="0" x2="672" y2="520"/> <line x1="768" y1="0" x2="768" y2="520"/>
  <line x1="864" y1="0" x2="864" y2="520"/>
</g>

<!-- Shine sweep animation -->
<rect width="120" height="520" fill="url(#shine)" opacity="0.6" x="-120">
  <animateTransform attributeName="transform" type="translate" from="-120,0" to="1080,0" dur="5s" repeatCount="indefinite"/>
</rect>

<!-- ═══ TOP STATUS BAR ════════════════════════════════════════════════════ -->
<rect x="330" y="12" width="300" height="28" rx="14" fill="white" stroke="#e2e8f0" stroke-width="1.5"/>
<circle cx="350" cy="26" r="5" fill="#10b981">
  <animate attributeName="opacity" values="1;0.3;1" dur="1.2s" repeatCount="indefinite"/>
</circle>
<text x="360" y="31" fill="#1e293b" font-family="monospace" font-size="10" font-weight="bold" letter-spacing="1">SYSTEM ONLINE</text>
<rect x="480" y="18" width="130" height="16" rx="8" fill="#fef3c7"/>
<text x="545" y="30" text-anchor="middle" fill="#92400e" font-family="monospace" font-size="9" letter-spacing="0.5">⚠ TEST MODE ONLY</text>

<!-- ═══ CONNECTIONS ═══════════════════════════════════════════════════════ -->

<!-- Claude ↔ MCP -->
<path d="M185,252 C225,252 255,252 290,252" fill="none" stroke="#3b82f6" stroke-width="2.5" stroke-dasharray="8 4" marker-end="url(#a-blue)"/>
<path d="M290,263 C255,263 225,263 185,263" fill="none" stroke="#93c5fd" stroke-width="1.5" stroke-dasharray="5 5" marker-end="url(#a-blue)" opacity="0.6"/>

<!-- MCP ↔ Stripe -->
<path d="M607,190 C645,190 695,168 740,158" fill="none" stroke="#8b5cf6" stroke-width="2.5" stroke-dasharray="8 4" marker-end="url(#a-violet)"/>
<path d="M740,168 C700,178 650,198 607,200" fill="none" stroke="#c4b5fd" stroke-width="1.5" stroke-dasharray="5 5" marker-end="url(#a-violet)" opacity="0.6"/>

<!-- MCP ↔ DB -->
<path d="M607,322 C645,322 695,348 740,360" fill="none" stroke="#10b981" stroke-width="2.5" stroke-dasharray="8 4" marker-end="url(#a-green)"/>
<path d="M740,370 C700,360 650,332 607,332" fill="none" stroke="#6ee7b7" stroke-width="1.5" stroke-dasharray="5 5" marker-end="url(#a-green)" opacity="0.6"/>

<!-- Connection labels -->
<rect x="193" y="232" width="96" height="16" rx="8" fill="white" stroke="#bfdbfe" stroke-width="1"/>
<text x="241" y="244" text-anchor="middle" fill="#2563eb" font-family="monospace" font-size="8" font-weight="bold">JSON-RPC · stdio</text>

<rect x="646" y="154" width="64" height="16" rx="8" fill="white" stroke="#ddd6fe" stroke-width="1" transform="rotate(-14,678,162)"/>
<text x="678" y="166" text-anchor="middle" fill="#7c3aed" font-family="monospace" font-size="8" font-weight="bold" transform="rotate(-14,678,166)">Stripe SDK</text>

<rect x="641" y="320" width="76" height="16" rx="8" fill="white" stroke="#bbf7d0" stroke-width="1" transform="rotate(14,679,328)"/>
<text x="679" y="332" text-anchor="middle" fill="#059669" font-family="monospace" font-size="8" font-weight="bold" transform="rotate(14,679,332)">SQLAlchemy</text>

<!-- ═══ ANIMATED DOTS ═════════════════════════════════════════════════════ -->

<!-- Claude→MCP (blue) -->
<g filter="url(#dot-glow-blue)">
  <circle r="7" fill="#2563eb"><animateMotion dur="1.8s" repeatCount="indefinite" begin="0s"><mpath href="#p1"/></animateMotion><animate attributeName="opacity" values="0;1;1;0" dur="1.8s" repeatCount="indefinite"/></circle>
  <circle r="5" fill="#3b82f6"><animateMotion dur="1.8s" repeatCount="indefinite" begin="0.65s"><mpath href="#p1"/></animateMotion><animate attributeName="opacity" values="0;0.8;0.8;0" dur="1.8s" repeatCount="indefinite" begin="0.65s"/></circle>
  <circle r="3" fill="#60a5fa"><animateMotion dur="1.8s" repeatCount="indefinite" begin="1.2s"><mpath href="#p1"/></animateMotion><animate attributeName="opacity" values="0;0.5;0.5;0" dur="1.8s" repeatCount="indefinite" begin="1.2s"/></circle>
</g>
<circle r="4" fill="#93c5fd"><animateMotion dur="2s" repeatCount="indefinite" begin="0.9s"><mpath href="#p1r"/></animateMotion><animate attributeName="opacity" values="0;0.6;0.6;0" dur="2s" repeatCount="indefinite" begin="0.9s"/></circle>

<!-- MCP→Stripe (violet) -->
<g filter="url(#dot-glow-purple)">
  <circle r="7" fill="#7c3aed"><animateMotion dur="1.5s" repeatCount="indefinite" begin="0.3s"><mpath href="#p2"/></animateMotion><animate attributeName="opacity" values="0;1;1;0" dur="1.5s" repeatCount="indefinite" begin="0.3s"/></circle>
  <circle r="5" fill="#8b5cf6"><animateMotion dur="1.5s" repeatCount="indefinite" begin="0.95s"><mpath href="#p2"/></animateMotion><animate attributeName="opacity" values="0;0.8;0.8;0" dur="1.5s" repeatCount="indefinite" begin="0.95s"/></circle>
</g>
<circle r="4" fill="#a78bfa"><animateMotion dur="1.5s" repeatCount="indefinite" begin="0.6s"><mpath href="#p2r"/></animateMotion><animate attributeName="opacity" values="0;0.7;0.7;0" dur="1.5s" repeatCount="indefinite" begin="0.6s"/></circle>

<!-- MCP→DB (green) -->
<g filter="url(#dot-glow-green)">
  <circle r="7" fill="#059669"><animateMotion dur="1.6s" repeatCount="indefinite" begin="0.15s"><mpath href="#p3"/></animateMotion><animate attributeName="opacity" values="0;1;1;0" dur="1.6s" repeatCount="indefinite" begin="0.15s"/></circle>
  <circle r="5" fill="#10b981"><animateMotion dur="1.6s" repeatCount="indefinite" begin="0.8s"><mpath href="#p3"/></animateMotion><animate attributeName="opacity" values="0;0.8;0.8;0" dur="1.6s" repeatCount="indefinite" begin="0.8s"/></circle>
</g>
<circle r="4" fill="#34d399"><animateMotion dur="1.6s" repeatCount="indefinite" begin="0.5s"><mpath href="#p3r"/></animateMotion><animate attributeName="opacity" values="0;0.7;0.7;0" dur="1.6s" repeatCount="indefinite" begin="0.5s"/></circle>

<!-- ═══ CLAUDE DESKTOP ════════════════════════════════════════════════════ -->
<g filter="url(#shadow-blue)">
  <rect x="18" y="196" width="167" height="118" rx="14" fill="url(#claude-fill)" stroke="#3b82f6" stroke-width="2.5">
    <animate attributeName="stroke-opacity" values="0.7;1;0.7" dur="2.5s" repeatCount="indefinite"/>
  </rect>
</g>
<!-- Top color bar -->
<rect x="18" y="196" width="167" height="10" rx="14" fill="#3b82f6"/>
<rect x="18" y="200" width="167" height="6" fill="#3b82f6"/>
<!-- Traffic lights -->
<circle cx="34" cy="201" r="3" fill="#ff5f57"/><circle cx="46" cy="201" r="3" fill="#febc2e"/><circle cx="58" cy="201" r="3" fill="#28c840"/>

<text x="101" y="235" text-anchor="middle" font-size="26">🖥️</text>
<text x="101" y="258" text-anchor="middle" fill="#1e40af" font-family="monospace" font-size="13" font-weight="bold">Claude Desktop</text>
<text x="101" y="274" text-anchor="middle" fill="#3b82f6" font-family="monospace" font-size="9">AI Client</text>
<text x="101" y="290" text-anchor="middle" fill="#64748b" font-family="monospace" font-size="8">natural language input</text>
<!-- cursor blink -->
<rect x="148" y="281" width="5" height="9" rx="1" fill="#3b82f6">
  <animate attributeName="opacity" values="1;0;1" dur="1s" repeatCount="indefinite"/>
</rect>

<!-- ═══ MCP SERVER ════════════════════════════════════════════════════════ -->
<g filter="url(#shadow-purple)">
  <rect x="290" y="78" width="317" height="375" rx="16" fill="url(#mcp-fill)" stroke="#7c3aed" stroke-width="2.5">
    <animate attributeName="stroke-opacity" values="0.6;1;0.6" dur="3s" repeatCount="indefinite"/>
  </rect>
</g>

<!-- MCP top bar -->
<rect x="290" y="78" width="317" height="38" rx="16" fill="#7c3aed"/>
<rect x="290" y="92" width="317" height="24" fill="#7c3aed"/>
<text x="448" y="102" text-anchor="middle" fill="white" font-family="monospace" font-size="12" font-weight="bold" letter-spacing="2">⚙️  THE ORCHESTRATOR</text>

<!-- Corner tab -->
<rect x="305" y="125" width="287" height="14" rx="4" fill="#f3e8ff"/>
<text x="448" y="136" text-anchor="middle" fill="#6d28d9" font-family="monospace" font-size="8" letter-spacing="1">payment-ops MCP server</text>

<!-- ── Layer 1: MCP Layer ── -->
<rect x="305" y="148" width="287" height="78" rx="10" fill="white" stroke="#6366f1" stroke-width="2"/>
<rect x="305" y="148" width="287" height="26" rx="10" fill="#eef2ff"/>
<rect x="305" y="162" width="287" height="12" fill="#eef2ff"/>
<text x="320" y="164" fill="#4338ca" font-family="monospace" font-size="10" font-weight="bold">🔌  MCP Layer</text>
<rect x="516" y="151" width="38" height="14" rx="7" fill="#e0e7ff"/>
<text x="535" y="162" text-anchor="middle" fill="#4338ca" font-family="monospace" font-size="7" font-weight="bold">tools</text>
<rect x="558" y="151" width="28" height="14" rx="7" fill="#e0e7ff"/>
<text x="572" y="162" text-anchor="middle" fill="#4338ca" font-family="monospace" font-size="7" font-weight="bold">MCP</text>
<text x="320" y="192" fill="#475569" font-family="monospace" font-size="9">mcp_server.py</text>
<text x="320" y="207" fill="#94a3b8" font-family="monospace" font-size="8">7 tools  ·  2 resources  ·  2 prompts</text>
<!-- Animated indicator -->
<circle cx="574" cy="192" r="5" fill="#6366f1">
  <animate attributeName="r" values="4;7;4" dur="2s" repeatCount="indefinite"/>
  <animate attributeName="opacity" values="1;0.3;1" dur="2s" repeatCount="indefinite"/>
</circle>

<!-- ── Layer 2: Service Layer ── -->
<rect x="305" y="237" width="287" height="78" rx="10" fill="white" stroke="#8b5cf6" stroke-width="2"/>
<rect x="305" y="237" width="287" height="26" rx="10" fill="#f5f3ff"/>
<rect x="305" y="251" width="287" height="12" fill="#f5f3ff"/>
<text x="320" y="253" fill="#6d28d9" font-family="monospace" font-size="10" font-weight="bold">🧠  Service Layer</text>
<rect x="510" y="240" width="76" height="14" rx="7" fill="#ede9fe"/>
<text x="548" y="251" text-anchor="middle" fill="#6d28d9" font-family="monospace" font-size="7" font-weight="bold">business rules</text>
<text x="320" y="281" fill="#475569" font-family="monospace" font-size="9">payment_service.py</text>
<text x="320" y="296" fill="#94a3b8" font-family="monospace" font-size="8">90-day rule  ·  human-in-the-loop gate</text>
<circle cx="574" cy="281" r="5" fill="#8b5cf6">
  <animate attributeName="r" values="4;7;4" dur="2.4s" repeatCount="indefinite" begin="0.4s"/>
  <animate attributeName="opacity" values="1;0.3;1" dur="2.4s" repeatCount="indefinite" begin="0.4s"/>
</circle>

<!-- ── Layer 3: Integration Layer ── -->
<rect x="305" y="326" width="287" height="78" rx="10" fill="white" stroke="#0ea5e9" stroke-width="2"/>
<rect x="305" y="326" width="287" height="26" rx="10" fill="#f0f9ff"/>
<rect x="305" y="340" width="287" height="12" fill="#f0f9ff"/>
<text x="320" y="342" fill="#0369a1" font-family="monospace" font-size="10" font-weight="bold">🔗  Integration Layer</text>
<rect x="518" y="329" width="68" height="14" rx="7" fill="#e0f2fe"/>
<text x="552" y="340" text-anchor="middle" fill="#0369a1" font-family="monospace" font-size="7" font-weight="bold">SDK · ORM</text>
<text x="320" y="370" fill="#475569" font-family="monospace" font-size="9">stripe_client.py  ·  database.py</text>
<text x="320" y="385" fill="#94a3b8" font-family="monospace" font-size="8">Stripe Python SDK  ·  SQLAlchemy ORM</text>
<circle cx="574" cy="370" r="5" fill="#0ea5e9">
  <animate attributeName="r" values="4;7;4" dur="2.2s" repeatCount="indefinite" begin="0.8s"/>
  <animate attributeName="opacity" values="1;0.3;1" dur="2.2s" repeatCount="indefinite" begin="0.8s"/>
</circle>

<!-- Safety banner -->
<rect x="305" y="416" width="287" height="26" rx="8" fill="#fef2f2" stroke="#fca5a5" stroke-width="1.5">
  <animate attributeName="stroke-opacity" values="0.5;1;0.5" dur="2s" repeatCount="indefinite"/>
</rect>
<text x="448" y="432" text-anchor="middle" fill="#dc2626" font-family="monospace" font-size="9" font-weight="bold">🔒  HUMAN CONFIRM REQUIRED BEFORE MONEY MOVES</text>

<!-- ═══ STRIPE BOX ════════════════════════════════════════════════════════ -->
<g filter="url(#shadow-violet)">
  <rect x="740" y="90" width="202" height="148" rx="14" fill="url(#stripe-fill)" stroke="#7c3aed" stroke-width="2.5">
    <animate attributeName="stroke-opacity" values="0.6;1;0.6" dur="2s" repeatCount="indefinite" begin="0.3s"/>
  </rect>
</g>
<!-- Top bar -->
<rect x="740" y="90" width="202" height="36" rx="14" fill="#7c3aed"/>
<rect x="740" y="110" width="202" height="16" fill="#7c3aed"/>
<text x="841" y="113" text-anchor="middle" fill="white" font-family="monospace" font-size="10" font-weight="bold" letter-spacing="1">💳  STRIPE API</text>

<text x="841" y="152" text-anchor="middle" fill="#4c1d95" font-family="monospace" font-size="13" font-weight="bold">Stripe API</text>
<text x="841" y="170" text-anchor="middle" fill="#6d28d9" font-family="monospace" font-size="9">PaymentIntents · Refunds</text>
<text x="841" y="186" text-anchor="middle" fill="#7c3aed" font-family="monospace" font-size="8">Customers · Payment Links</text>

<!-- TEST badge -->
<rect x="752" y="197" width="178" height="28" rx="6" fill="#ede9fe" stroke="#c4b5fd" stroke-width="1"/>
<text x="841" y="215" text-anchor="middle" fill="#5b21b6" font-family="monospace" font-size="9" font-weight="bold">rk_test_  ·  NO REAL MONEY</text>

<!-- Live indicator -->
<circle cx="754" cy="103" r="5" fill="#10b981">
  <animate attributeName="opacity" values="1;0.2;1" dur="1.2s" repeatCount="indefinite"/>
</circle>
<text x="763" y="107" fill="white" font-family="monospace" font-size="8" font-weight="bold">live</text>

<!-- ═══ ORDERS DB BOX ═════════════════════════════════════════════════════ -->
<g filter="url(#shadow-green)">
  <rect x="740" y="308" width="202" height="162" rx="14" fill="url(#db-fill)" stroke="#16a34a" stroke-width="2.5">
    <animate attributeName="stroke-opacity" values="0.6;1;0.6" dur="2.3s" repeatCount="indefinite" begin="0.6s"/>
  </rect>
</g>
<!-- Top bar -->
<rect x="740" y="308" width="202" height="36" rx="14" fill="#16a34a"/>
<rect x="740" y="328" width="202" height="16" fill="#16a34a"/>
<text x="841" y="331" text-anchor="middle" fill="white" font-family="monospace" font-size="10" font-weight="bold" letter-spacing="1">🗄️  ORDERS DB</text>

<text x="841" y="368" text-anchor="middle" fill="#14532d" font-family="monospace" font-size="13" font-weight="bold">Orders DB</text>

<!-- Schema rows -->
<rect x="755" y="376" width="172" height="12" rx="3" fill="white" opacity="0.7"/>
<text x="764" y="386" fill="#166534" font-family="monospace" font-size="8">▸ customers</text>
<rect x="755" y="392" width="172" height="12" rx="3" fill="white" opacity="0.7"/>
<text x="764" y="402" fill="#166534" font-family="monospace" font-size="8">▸ orders</text>
<rect x="755" y="408" width="172" height="12" rx="3" fill="#d1fae5" stroke="#86efac" stroke-width="1"/>
<text x="764" y="418" fill="#065f46" font-family="monospace" font-size="8" font-weight="bold">▸ refund_log  ✓  audit trail</text>
<text x="841" y="440" text-anchor="middle" fill="#6b7280" font-family="monospace" font-size="8">SQLite / Postgres</text>

<!-- WRITE flash badge -->
<rect x="870" y="390" width="58" height="16" rx="6" fill="#16a34a">
  <animate attributeName="opacity" values="0;0;0;1;1;1;0" dur="3s" repeatCount="indefinite" begin="1s"/>
</rect>
<text x="899" y="401" text-anchor="middle" fill="white" font-family="monospace" font-size="8" font-weight="bold">WRITE ✓</text>

<!-- Synced indicator -->
<circle cx="754" cy="321" r="5" fill="white">
  <animate attributeName="opacity" values="1;0.2;1" dur="1.6s" repeatCount="indefinite" begin="0.4s"/>
</circle>
<text x="763" y="325" fill="white" font-family="monospace" font-size="8" font-weight="bold">synced</text>

<!-- ═══ STEP BADGES — positioned above/below lines, away from labels ════ -->
<!-- ① above the Claude→MCP line -->
<circle cx="238" cy="220" r="12" fill="white" stroke="#3b82f6" stroke-width="2.5"/>
<text x="238" y="225" text-anchor="middle" fill="#2563eb" font-family="monospace" font-size="11" font-weight="bold">①</text>
<line x1="238" y1="232" x2="238" y2="244" stroke="#3b82f6" stroke-width="1" stroke-dasharray="2 2" opacity="0.5"/>

<!-- ③ above the MCP→Stripe line -->
<circle cx="665" cy="136" r="12" fill="white" stroke="#8b5cf6" stroke-width="2.5"/>
<text x="665" y="141" text-anchor="middle" fill="#7c3aed" font-family="monospace" font-size="11" font-weight="bold">③</text>
<line x1="665" y1="148" x2="665" y2="158" stroke="#8b5cf6" stroke-width="1" stroke-dasharray="2 2" opacity="0.5"/>

<!-- ② below the MCP→DB line -->
<circle cx="665" cy="386" r="12" fill="white" stroke="#10b981" stroke-width="2.5"/>
<text x="665" y="391" text-anchor="middle" fill="#059669" font-family="monospace" font-size="11" font-weight="bold">②</text>
<line x1="665" y1="374" x2="665" y2="374" stroke="#10b981" stroke-width="1" stroke-dasharray="2 2" opacity="0.5"/>

<!-- ═══ FOOTER ════════════════════════════════════════════════════════════ -->
<rect x="260" y="464" width="440" height="24" rx="12" fill="white" stroke="#e2e8f0" stroke-width="1"/>
<text x="480" y="480" text-anchor="middle" fill="#64748b" font-family="monospace" font-size="9">Python · MCP SDK · Stripe API · SQLAlchemy · pytest · 99% coverage</text>

</svg>
